<mxfile host="app.diagrams.net" agent="Mozilla/5.0 (Windows NT 10.0; Win64; x64; rv:135.0) Gecko/20100101 Firefox/135.0" version="26.0.15">
  <diagram id="C5RBs43oDa-KdzZeNtuy" name="Page-1">
    <mxGraphModel dx="3212" dy="861" grid="1" gridSize="10" guides="1" tooltips="1" connect="1" arrows="1" fold="1" page="1" pageScale="1" pageWidth="827" pageHeight="1169" math="0" shadow="0">
      <root>
        <mxCell id="WIyWlLk6GJQsqaUBKTNV-0" />
        <mxCell id="WIyWlLk6GJQsqaUBKTNV-1" parent="WIyWlLk6GJQsqaUBKTNV-0" />
        <mxCell id="ZW8-_Qs09FvXCvjAXGHZ-1" value="DIM_REPONSE" style="swimlane;fontStyle=0;childLayout=stackLayout;horizontal=1;startSize=40;fillColor=#fff2cc;horizontalStack=0;resizeParent=1;resizeParentMax=0;resizeLast=0;collapsible=1;marginBottom=0;whiteSpace=wrap;html=1;strokeColor=#d6b656;" parent="WIyWlLk6GJQsqaUBKTNV-1" vertex="1">
          <mxGeometry x="1070" y="487.5" width="260" height="252" as="geometry">
            <mxRectangle x="190" y="310" width="140" height="30" as="alternateBounds" />
          </mxGeometry>
        </mxCell>
        <mxCell id="ZW8-_Qs09FvXCvjAXGHZ-2" value="+ KEY_REPONSE: type" style="text;strokeColor=none;fillColor=none;align=left;verticalAlign=top;spacingLeft=4;spacingRight=4;overflow=hidden;rotatable=0;points=[[0,0.5],[1,0.5]];portConstraint=eastwest;whiteSpace=wrap;html=1;" parent="ZW8-_Qs09FvXCvjAXGHZ-1" vertex="1">
          <mxGeometry y="40" width="260" height="26" as="geometry" />
        </mxCell>
        <mxCell id="ZW8-_Qs09FvXCvjAXGHZ-10" value="&lt;div&gt;+ ID_REPONSE: type&lt;/div&gt;" style="text;strokeColor=none;fillColor=none;align=left;verticalAlign=top;spacingLeft=4;spacingRight=4;overflow=hidden;rotatable=0;points=[[0,0.5],[1,0.5]];portConstraint=eastwest;whiteSpace=wrap;html=1;" parent="ZW8-_Qs09FvXCvjAXGHZ-1" vertex="1">
          <mxGeometry y="66" width="260" height="32" as="geometry" />
        </mxCell>
        <mxCell id="ZW8-_Qs09FvXCvjAXGHZ-11" value="&lt;div&gt;+ LB_REPONSE: type&lt;/div&gt;" style="text;strokeColor=none;fillColor=none;align=left;verticalAlign=top;spacingLeft=4;spacingRight=4;overflow=hidden;rotatable=0;points=[[0,0.5],[1,0.5]];portConstraint=eastwest;whiteSpace=wrap;html=1;" parent="ZW8-_Qs09FvXCvjAXGHZ-1" vertex="1">
          <mxGeometry y="98" width="260" height="32" as="geometry" />
        </mxCell>
        <mxCell id="ZW8-_Qs09FvXCvjAXGHZ-12" value="&lt;div&gt;+ TYPE_REPONSE: type&lt;/div&gt;" style="text;strokeColor=none;fillColor=none;align=left;verticalAlign=top;spacingLeft=4;spacingRight=4;overflow=hidden;rotatable=0;points=[[0,0.5],[1,0.5]];portConstraint=eastwest;whiteSpace=wrap;html=1;" parent="ZW8-_Qs09FvXCvjAXGHZ-1" vertex="1">
          <mxGeometry y="130" width="260" height="32" as="geometry" />
        </mxCell>
        <mxCell id="ZW8-_Qs09FvXCvjAXGHZ-13" value="&lt;div&gt;+ FLG_PRIMAIRE: type&lt;/div&gt;" style="text;strokeColor=none;fillColor=none;align=left;verticalAlign=top;spacingLeft=4;spacingRight=4;overflow=hidden;rotatable=0;points=[[0,0.5],[1,0.5]];portConstraint=eastwest;whiteSpace=wrap;html=1;" parent="ZW8-_Qs09FvXCvjAXGHZ-1" vertex="1">
          <mxGeometry y="162" width="260" height="32" as="geometry" />
        </mxCell>
        <mxCell id="ZW8-_Qs09FvXCvjAXGHZ-14" value="&lt;div&gt;+ FLG_SECONDAIRE: type&lt;/div&gt;" style="text;strokeColor=none;fillColor=none;align=left;verticalAlign=top;spacingLeft=4;spacingRight=4;overflow=hidden;rotatable=0;points=[[0,0.5],[1,0.5]];portConstraint=eastwest;whiteSpace=wrap;html=1;" parent="ZW8-_Qs09FvXCvjAXGHZ-1" vertex="1">
          <mxGeometry y="194" width="260" height="32" as="geometry" />
        </mxCell>
        <mxCell id="ZW8-_Qs09FvXCvjAXGHZ-3" value="+ KEY_QUESTION: type" style="text;strokeColor=none;fillColor=none;align=left;verticalAlign=top;spacingLeft=4;spacingRight=4;overflow=hidden;rotatable=0;points=[[0,0.5],[1,0.5]];portConstraint=eastwest;whiteSpace=wrap;html=1;" parent="ZW8-_Qs09FvXCvjAXGHZ-1" vertex="1">
          <mxGeometry y="226" width="260" height="26" as="geometry" />
        </mxCell>
        <mxCell id="ZW8-_Qs09FvXCvjAXGHZ-15" value="DIM_SCORE" style="swimlane;fontStyle=0;childLayout=stackLayout;horizontal=1;startSize=40;fillColor=#d5e8d4;horizontalStack=0;resizeParent=1;resizeParentMax=0;resizeLast=0;collapsible=1;marginBottom=0;whiteSpace=wrap;html=1;strokeColor=#82b366;" parent="WIyWlLk6GJQsqaUBKTNV-1" vertex="1">
          <mxGeometry x="1420" y="410" width="260" height="188" as="geometry">
            <mxRectangle x="190" y="310" width="140" height="30" as="alternateBounds" />
          </mxGeometry>
        </mxCell>
        <mxCell id="ZW8-_Qs09FvXCvjAXGHZ-16" value="+ KEY_REPONSE: type" style="text;strokeColor=none;fillColor=none;align=left;verticalAlign=top;spacingLeft=4;spacingRight=4;overflow=hidden;rotatable=0;points=[[0,0.5],[1,0.5]];portConstraint=eastwest;whiteSpace=wrap;html=1;" parent="ZW8-_Qs09FvXCvjAXGHZ-15" vertex="1">
          <mxGeometry y="40" width="260" height="26" as="geometry" />
        </mxCell>
        <mxCell id="ZW8-_Qs09FvXCvjAXGHZ-17" value="+ MACRO_SEGMENT: type" style="text;strokeColor=none;fillColor=none;align=left;verticalAlign=top;spacingLeft=4;spacingRight=4;overflow=hidden;rotatable=0;points=[[0,0.5],[1,0.5]];portConstraint=eastwest;whiteSpace=wrap;html=1;" parent="ZW8-_Qs09FvXCvjAXGHZ-15" vertex="1">
          <mxGeometry y="66" width="260" height="26" as="geometry" />
        </mxCell>
        <mxCell id="ZW8-_Qs09FvXCvjAXGHZ-18" value="&lt;div&gt;+ SEGMENT: type&lt;/div&gt;" style="text;strokeColor=none;fillColor=none;align=left;verticalAlign=top;spacingLeft=4;spacingRight=4;overflow=hidden;rotatable=0;points=[[0,0.5],[1,0.5]];portConstraint=eastwest;whiteSpace=wrap;html=1;" parent="ZW8-_Qs09FvXCvjAXGHZ-15" vertex="1">
          <mxGeometry y="92" width="260" height="32" as="geometry" />
        </mxCell>
        <mxCell id="ZW8-_Qs09FvXCvjAXGHZ-19" value="&lt;div&gt;+ SCORE_PRIMAIRE: type&lt;/div&gt;" style="text;strokeColor=none;fillColor=none;align=left;verticalAlign=top;spacingLeft=4;spacingRight=4;overflow=hidden;rotatable=0;points=[[0,0.5],[1,0.5]];portConstraint=eastwest;whiteSpace=wrap;html=1;" parent="ZW8-_Qs09FvXCvjAXGHZ-15" vertex="1">
          <mxGeometry y="124" width="260" height="32" as="geometry" />
        </mxCell>
        <mxCell id="ZW8-_Qs09FvXCvjAXGHZ-20" value="&lt;div&gt;+ SCORE_SECONDAIRE: type&lt;/div&gt;" style="text;strokeColor=none;fillColor=none;align=left;verticalAlign=top;spacingLeft=4;spacingRight=4;overflow=hidden;rotatable=0;points=[[0,0.5],[1,0.5]];portConstraint=eastwest;whiteSpace=wrap;html=1;" parent="ZW8-_Qs09FvXCvjAXGHZ-15" vertex="1">
          <mxGeometry y="156" width="260" height="32" as="geometry" />
        </mxCell>
        <mxCell id="ZW8-_Qs09FvXCvjAXGHZ-28" value="DIM_QUESTION" style="swimlane;fontStyle=0;childLayout=stackLayout;horizontal=1;startSize=40;fillColor=#fff2cc;horizontalStack=0;resizeParent=1;resizeParentMax=0;resizeLast=0;collapsible=1;marginBottom=0;whiteSpace=wrap;html=1;strokeColor=#d6b656;" parent="WIyWlLk6GJQsqaUBKTNV-1" vertex="1">
          <mxGeometry x="1420" y="630" width="260" height="220" as="geometry">
            <mxRectangle x="190" y="310" width="140" height="30" as="alternateBounds" />
          </mxGeometry>
        </mxCell>
        <mxCell id="ZW8-_Qs09FvXCvjAXGHZ-29" value="+ KEY_QUESTION: type" style="text;strokeColor=none;fillColor=none;align=left;verticalAlign=top;spacingLeft=4;spacingRight=4;overflow=hidden;rotatable=0;points=[[0,0.5],[1,0.5]];portConstraint=eastwest;whiteSpace=wrap;html=1;" parent="ZW8-_Qs09FvXCvjAXGHZ-28" vertex="1">
          <mxGeometry y="40" width="260" height="26" as="geometry" />
        </mxCell>
        <mxCell id="ZW8-_Qs09FvXCvjAXGHZ-30" value="+ MACRO_CATEGORIE: type" style="text;strokeColor=none;fillColor=none;align=left;verticalAlign=top;spacingLeft=4;spacingRight=4;overflow=hidden;rotatable=0;points=[[0,0.5],[1,0.5]];portConstraint=eastwest;whiteSpace=wrap;html=1;" parent="ZW8-_Qs09FvXCvjAXGHZ-28" vertex="1">
          <mxGeometry y="66" width="260" height="26" as="geometry" />
        </mxCell>
        <mxCell id="ZW8-_Qs09FvXCvjAXGHZ-31" value="&lt;div&gt;&lt;div&gt;+ CATEGORIE: type&lt;/div&gt;&lt;/div&gt;" style="text;strokeColor=none;fillColor=none;align=left;verticalAlign=top;spacingLeft=4;spacingRight=4;overflow=hidden;rotatable=0;points=[[0,0.5],[1,0.5]];portConstraint=eastwest;whiteSpace=wrap;html=1;" parent="ZW8-_Qs09FvXCvjAXGHZ-28" vertex="1">
          <mxGeometry y="92" width="260" height="32" as="geometry" />
        </mxCell>
        <mxCell id="ZW8-_Qs09FvXCvjAXGHZ-33" value="&lt;div&gt;+ LB_QUESTION: type&lt;/div&gt;" style="text;strokeColor=none;fillColor=none;align=left;verticalAlign=top;spacingLeft=4;spacingRight=4;overflow=hidden;rotatable=0;points=[[0,0.5],[1,0.5]];portConstraint=eastwest;whiteSpace=wrap;html=1;" parent="ZW8-_Qs09FvXCvjAXGHZ-28" vertex="1">
          <mxGeometry y="124" width="260" height="32" as="geometry" />
        </mxCell>
        <mxCell id="ZW8-_Qs09FvXCvjAXGHZ-36" value="&lt;div&gt;&lt;div&gt;+ TYPE_QUESTION: type&lt;/div&gt;&lt;/div&gt;" style="text;strokeColor=none;fillColor=none;align=left;verticalAlign=top;spacingLeft=4;spacingRight=4;overflow=hidden;rotatable=0;points=[[0,0.5],[1,0.5]];portConstraint=eastwest;whiteSpace=wrap;html=1;" parent="ZW8-_Qs09FvXCvjAXGHZ-28" vertex="1">
          <mxGeometry y="156" width="260" height="32" as="geometry" />
        </mxCell>
        <mxCell id="ZW8-_Qs09FvXCvjAXGHZ-37" value="&lt;div&gt;&lt;div&gt;+ FLG_QUESTION_MULTIPLE: type&lt;/div&gt;&lt;/div&gt;" style="text;strokeColor=none;fillColor=none;align=left;verticalAlign=top;spacingLeft=4;spacingRight=4;overflow=hidden;rotatable=0;points=[[0,0.5],[1,0.5]];portConstraint=eastwest;whiteSpace=wrap;html=1;" parent="ZW8-_Qs09FvXCvjAXGHZ-28" vertex="1">
          <mxGeometry y="188" width="260" height="32" as="geometry" />
        </mxCell>
        <mxCell id="ZW8-_Qs09FvXCvjAXGHZ-42" value="FACT_REPONSE" style="swimlane;fontStyle=0;childLayout=stackLayout;horizontal=1;startSize=40;fillColor=#dae8fc;horizontalStack=0;resizeParent=1;resizeParentMax=0;resizeLast=0;collapsible=1;marginBottom=0;whiteSpace=wrap;html=1;strokeColor=#6c8ebf;" parent="WIyWlLk6GJQsqaUBKTNV-1" vertex="1">
          <mxGeometry x="710" y="487.5" width="260" height="194" as="geometry">
            <mxRectangle x="190" y="310" width="140" height="30" as="alternateBounds" />
          </mxGeometry>
        </mxCell>
        <mxCell id="ZW8-_Qs09FvXCvjAXGHZ-43" value="+ ID_LOG: type" style="text;strokeColor=none;fillColor=none;align=left;verticalAlign=top;spacingLeft=4;spacingRight=4;overflow=hidden;rotatable=0;points=[[0,0.5],[1,0.5]];portConstraint=eastwest;whiteSpace=wrap;html=1;" parent="ZW8-_Qs09FvXCvjAXGHZ-42" vertex="1">
          <mxGeometry y="40" width="260" height="26" as="geometry" />
        </mxCell>
        <mxCell id="ZW8-_Qs09FvXCvjAXGHZ-44" value="&lt;div&gt;+ DATE_TIME: type&lt;/div&gt;" style="text;strokeColor=none;fillColor=none;align=left;verticalAlign=top;spacingLeft=4;spacingRight=4;overflow=hidden;rotatable=0;points=[[0,0.5],[1,0.5]];portConstraint=eastwest;whiteSpace=wrap;html=1;" parent="ZW8-_Qs09FvXCvjAXGHZ-42" vertex="1">
          <mxGeometry y="66" width="260" height="32" as="geometry" />
        </mxCell>
        <mxCell id="ZW8-_Qs09FvXCvjAXGHZ-45" value="&lt;div&gt;+ KEY_REPONSE: type&lt;/div&gt;" style="text;strokeColor=none;fillColor=none;align=left;verticalAlign=top;spacingLeft=4;spacingRight=4;overflow=hidden;rotatable=0;points=[[0,0.5],[1,0.5]];portConstraint=eastwest;whiteSpace=wrap;html=1;" parent="ZW8-_Qs09FvXCvjAXGHZ-42" vertex="1">
          <mxGeometry y="98" width="260" height="32" as="geometry" />
        </mxCell>
        <mxCell id="8j8fKpsjKrI1UQtAoq8Q-19" value="&lt;div&gt;+ TYPE_REPONDANT: type&lt;/div&gt;" style="text;strokeColor=none;fillColor=none;align=left;verticalAlign=top;spacingLeft=4;spacingRight=4;overflow=hidden;rotatable=0;points=[[0,0.5],[1,0.5]];portConstraint=eastwest;whiteSpace=wrap;html=1;" vertex="1" parent="ZW8-_Qs09FvXCvjAXGHZ-42">
          <mxGeometry y="130" width="260" height="32" as="geometry" />
        </mxCell>
        <mxCell id="ZW8-_Qs09FvXCvjAXGHZ-71" value="&lt;div&gt;+ ID_REPONDANT: type&lt;/div&gt;" style="text;strokeColor=none;fillColor=none;align=left;verticalAlign=top;spacingLeft=4;spacingRight=4;overflow=hidden;rotatable=0;points=[[0,0.5],[1,0.5]];portConstraint=eastwest;whiteSpace=wrap;html=1;" parent="ZW8-_Qs09FvXCvjAXGHZ-42" vertex="1">
          <mxGeometry y="162" width="260" height="32" as="geometry" />
        </mxCell>
        <mxCell id="ZW8-_Qs09FvXCvjAXGHZ-50" value="DIM_ELEVE" style="swimlane;fontStyle=0;childLayout=stackLayout;horizontal=1;startSize=40;fillColor=#f8cecc;horizontalStack=0;resizeParent=1;resizeParentMax=0;resizeLast=0;collapsible=1;marginBottom=0;whiteSpace=wrap;html=1;strokeColor=#b85450;" parent="WIyWlLk6GJQsqaUBKTNV-1" vertex="1">
          <mxGeometry x="350" y="487.5" width="260" height="156" as="geometry">
            <mxRectangle x="190" y="310" width="140" height="30" as="alternateBounds" />
          </mxGeometry>
        </mxCell>
        <mxCell id="ZW8-_Qs09FvXCvjAXGHZ-51" value="+ ID_REPONDANT: type" style="text;strokeColor=none;fillColor=none;align=left;verticalAlign=top;spacingLeft=4;spacingRight=4;overflow=hidden;rotatable=0;points=[[0,0.5],[1,0.5]];portConstraint=eastwest;whiteSpace=wrap;html=1;" parent="ZW8-_Qs09FvXCvjAXGHZ-50" vertex="1">
          <mxGeometry y="40" width="260" height="26" as="geometry" />
        </mxCell>
        <mxCell id="ZW8-_Qs09FvXCvjAXGHZ-52" value="+ GENRE: type" style="text;strokeColor=none;fillColor=none;align=left;verticalAlign=top;spacingLeft=4;spacingRight=4;overflow=hidden;rotatable=0;points=[[0,0.5],[1,0.5]];portConstraint=eastwest;whiteSpace=wrap;html=1;" parent="ZW8-_Qs09FvXCvjAXGHZ-50" vertex="1">
          <mxGeometry y="66" width="260" height="26" as="geometry" />
        </mxCell>
        <mxCell id="ZW8-_Qs09FvXCvjAXGHZ-53" value="&lt;div&gt;+ AGE: type&lt;/div&gt;" style="text;strokeColor=none;fillColor=none;align=left;verticalAlign=top;spacingLeft=4;spacingRight=4;overflow=hidden;rotatable=0;points=[[0,0.5],[1,0.5]];portConstraint=eastwest;whiteSpace=wrap;html=1;" parent="ZW8-_Qs09FvXCvjAXGHZ-50" vertex="1">
          <mxGeometry y="92" width="260" height="32" as="geometry" />
        </mxCell>
        <mxCell id="ZW8-_Qs09FvXCvjAXGHZ-56" value="&lt;div&gt;+ ID_CLASSE: type&lt;/div&gt;" style="text;strokeColor=none;fillColor=none;align=left;verticalAlign=top;spacingLeft=4;spacingRight=4;overflow=hidden;rotatable=0;points=[[0,0.5],[1,0.5]];portConstraint=eastwest;whiteSpace=wrap;html=1;" parent="ZW8-_Qs09FvXCvjAXGHZ-50" vertex="1">
          <mxGeometry y="124" width="260" height="32" as="geometry" />
        </mxCell>
        <mxCell id="ZW8-_Qs09FvXCvjAXGHZ-57" value="DIM_ETABLISSEMENT" style="swimlane;fontStyle=0;childLayout=stackLayout;horizontal=1;startSize=40;fillColor=#f8cecc;horizontalStack=0;resizeParent=1;resizeParentMax=0;resizeLast=0;collapsible=1;marginBottom=0;whiteSpace=wrap;html=1;strokeColor=#b85450;" parent="WIyWlLk6GJQsqaUBKTNV-1" vertex="1">
          <mxGeometry x="10" y="240" width="260" height="182" as="geometry">
            <mxRectangle x="190" y="310" width="140" height="30" as="alternateBounds" />
          </mxGeometry>
        </mxCell>
        <mxCell id="ZW8-_Qs09FvXCvjAXGHZ-62" value="&lt;div&gt;+ ID_ETABLISSEMENT: type&lt;/div&gt;" style="text;strokeColor=none;fillColor=none;align=left;verticalAlign=top;spacingLeft=4;spacingRight=4;overflow=hidden;rotatable=0;points=[[0,0.5],[1,0.5]];portConstraint=eastwest;whiteSpace=wrap;html=1;" parent="ZW8-_Qs09FvXCvjAXGHZ-57" vertex="1">
          <mxGeometry y="40" width="260" height="32" as="geometry" />
        </mxCell>
        <mxCell id="8j8fKpsjKrI1UQtAoq8Q-44" value="+ TYPE: type" style="text;strokeColor=none;fillColor=none;align=left;verticalAlign=top;spacingLeft=4;spacingRight=4;overflow=hidden;rotatable=0;points=[[0,0.5],[1,0.5]];portConstraint=eastwest;whiteSpace=wrap;html=1;" vertex="1" parent="ZW8-_Qs09FvXCvjAXGHZ-57">
          <mxGeometry y="72" width="260" height="26" as="geometry" />
        </mxCell>
        <mxCell id="ZW8-_Qs09FvXCvjAXGHZ-58" value="+ NB_ELEVES_ETAB: type" style="text;strokeColor=none;fillColor=none;align=left;verticalAlign=top;spacingLeft=4;spacingRight=4;overflow=hidden;rotatable=0;points=[[0,0.5],[1,0.5]];portConstraint=eastwest;whiteSpace=wrap;html=1;" parent="ZW8-_Qs09FvXCvjAXGHZ-57" vertex="1">
          <mxGeometry y="98" width="260" height="26" as="geometry" />
        </mxCell>
        <mxCell id="ZW8-_Qs09FvXCvjAXGHZ-59" value="+ ZIPCODE: type" style="text;strokeColor=none;fillColor=none;align=left;verticalAlign=top;spacingLeft=4;spacingRight=4;overflow=hidden;rotatable=0;points=[[0,0.5],[1,0.5]];portConstraint=eastwest;whiteSpace=wrap;html=1;" parent="ZW8-_Qs09FvXCvjAXGHZ-57" vertex="1">
          <mxGeometry y="124" width="260" height="26" as="geometry" />
        </mxCell>
        <mxCell id="ZW8-_Qs09FvXCvjAXGHZ-60" value="&lt;div&gt;+ ACADEMIE: type&lt;/div&gt;" style="text;strokeColor=none;fillColor=none;align=left;verticalAlign=top;spacingLeft=4;spacingRight=4;overflow=hidden;rotatable=0;points=[[0,0.5],[1,0.5]];portConstraint=eastwest;whiteSpace=wrap;html=1;" parent="ZW8-_Qs09FvXCvjAXGHZ-57" vertex="1">
          <mxGeometry y="150" width="260" height="32" as="geometry" />
        </mxCell>
        <mxCell id="8j8fKpsjKrI1UQtAoq8Q-0" value="DIM_CLASSE" style="swimlane;fontStyle=0;childLayout=stackLayout;horizontal=1;startSize=40;fillColor=#f8cecc;horizontalStack=0;resizeParent=1;resizeParentMax=0;resizeLast=0;collapsible=1;marginBottom=0;whiteSpace=wrap;html=1;strokeColor=#b85450;" vertex="1" parent="WIyWlLk6GJQsqaUBKTNV-1">
          <mxGeometry x="10" y="491" width="260" height="156" as="geometry">
            <mxRectangle x="190" y="310" width="140" height="30" as="alternateBounds" />
          </mxGeometry>
        </mxCell>
        <mxCell id="8j8fKpsjKrI1UQtAoq8Q-21" value="&lt;div&gt;+ ID_CLASSE: type&lt;/div&gt;" style="text;strokeColor=none;fillColor=none;align=left;verticalAlign=top;spacingLeft=4;spacingRight=4;overflow=hidden;rotatable=0;points=[[0,0.5],[1,0.5]];portConstraint=eastwest;whiteSpace=wrap;html=1;" vertex="1" parent="8j8fKpsjKrI1UQtAoq8Q-0">
          <mxGeometry y="40" width="260" height="32" as="geometry" />
        </mxCell>
        <mxCell id="8j8fKpsjKrI1UQtAoq8Q-1" value="&lt;div&gt;+ ID_ETABLISSEMENT: type&lt;/div&gt;" style="text;strokeColor=none;fillColor=none;align=left;verticalAlign=top;spacingLeft=4;spacingRight=4;overflow=hidden;rotatable=0;points=[[0,0.5],[1,0.5]];portConstraint=eastwest;whiteSpace=wrap;html=1;" vertex="1" parent="8j8fKpsjKrI1UQtAoq8Q-0">
          <mxGeometry y="72" width="260" height="32" as="geometry" />
        </mxCell>
        <mxCell id="8j8fKpsjKrI1UQtAoq8Q-45" value="+ NB_ELEVES_CLASSE: type" style="text;strokeColor=none;fillColor=none;align=left;verticalAlign=top;spacingLeft=4;spacingRight=4;overflow=hidden;rotatable=0;points=[[0,0.5],[1,0.5]];portConstraint=eastwest;whiteSpace=wrap;html=1;" vertex="1" parent="8j8fKpsjKrI1UQtAoq8Q-0">
          <mxGeometry y="104" width="260" height="26" as="geometry" />
        </mxCell>
        <mxCell id="8j8fKpsjKrI1UQtAoq8Q-2" value="+ NIVEAU: type" style="text;strokeColor=none;fillColor=none;align=left;verticalAlign=top;spacingLeft=4;spacingRight=4;overflow=hidden;rotatable=0;points=[[0,0.5],[1,0.5]];portConstraint=eastwest;whiteSpace=wrap;html=1;" vertex="1" parent="8j8fKpsjKrI1UQtAoq8Q-0">
          <mxGeometry y="130" width="260" height="26" as="geometry" />
        </mxCell>
        <mxCell id="8j8fKpsjKrI1UQtAoq8Q-12" value="DIM_ENSEIGNANT" style="swimlane;fontStyle=0;childLayout=stackLayout;horizontal=1;startSize=40;fillColor=#f8cecc;horizontalStack=0;resizeParent=1;resizeParentMax=0;resizeLast=0;collapsible=1;marginBottom=0;whiteSpace=wrap;html=1;strokeColor=#b85450;" vertex="1" parent="WIyWlLk6GJQsqaUBKTNV-1">
          <mxGeometry x="10" y="720" width="260" height="98" as="geometry">
            <mxRectangle x="190" y="310" width="140" height="30" as="alternateBounds" />
          </mxGeometry>
        </mxCell>
        <mxCell id="8j8fKpsjKrI1UQtAoq8Q-13" value="&lt;div&gt;+ ID_ENSEIGNANT: type&lt;/div&gt;" style="text;strokeColor=none;fillColor=none;align=left;verticalAlign=top;spacingLeft=4;spacingRight=4;overflow=hidden;rotatable=0;points=[[0,0.5],[1,0.5]];portConstraint=eastwest;whiteSpace=wrap;html=1;" vertex="1" parent="8j8fKpsjKrI1UQtAoq8Q-12">
          <mxGeometry y="40" width="260" height="32" as="geometry" />
        </mxCell>
        <mxCell id="8j8fKpsjKrI1UQtAoq8Q-14" value="+ ID_CLASSE: type" style="text;strokeColor=none;fillColor=none;align=left;verticalAlign=top;spacingLeft=4;spacingRight=4;overflow=hidden;rotatable=0;points=[[0,0.5],[1,0.5]];portConstraint=eastwest;whiteSpace=wrap;html=1;" vertex="1" parent="8j8fKpsjKrI1UQtAoq8Q-12">
          <mxGeometry y="72" width="260" height="26" as="geometry" />
        </mxCell>
        <mxCell id="8j8fKpsjKrI1UQtAoq8Q-20" style="edgeStyle=orthogonalEdgeStyle;rounded=0;orthogonalLoop=1;jettySize=auto;html=1;exitX=1;exitY=0.5;exitDx=0;exitDy=0;entryX=1;entryY=0.5;entryDx=0;entryDy=0;" edge="1" parent="WIyWlLk6GJQsqaUBKTNV-1" source="8j8fKpsjKrI1UQtAoq8Q-14" target="8j8fKpsjKrI1UQtAoq8Q-21">
          <mxGeometry relative="1" as="geometry" />
        </mxCell>
        <mxCell id="8j8fKpsjKrI1UQtAoq8Q-22" style="edgeStyle=orthogonalEdgeStyle;rounded=0;orthogonalLoop=1;jettySize=auto;html=1;exitX=0;exitY=0.5;exitDx=0;exitDy=0;entryX=0;entryY=0.5;entryDx=0;entryDy=0;" edge="1" parent="WIyWlLk6GJQsqaUBKTNV-1" source="8j8fKpsjKrI1UQtAoq8Q-1" target="ZW8-_Qs09FvXCvjAXGHZ-62">
          <mxGeometry relative="1" as="geometry" />
        </mxCell>
        <mxCell id="8j8fKpsjKrI1UQtAoq8Q-23" style="edgeStyle=orthogonalEdgeStyle;rounded=0;orthogonalLoop=1;jettySize=auto;html=1;exitX=0;exitY=0.5;exitDx=0;exitDy=0;entryX=1;entryY=0.5;entryDx=0;entryDy=0;" edge="1" parent="WIyWlLk6GJQsqaUBKTNV-1" source="ZW8-_Qs09FvXCvjAXGHZ-56" target="8j8fKpsjKrI1UQtAoq8Q-21">
          <mxGeometry relative="1" as="geometry" />
        </mxCell>
        <mxCell id="8j8fKpsjKrI1UQtAoq8Q-24" style="edgeStyle=orthogonalEdgeStyle;rounded=0;orthogonalLoop=1;jettySize=auto;html=1;exitX=0;exitY=0.5;exitDx=0;exitDy=0;entryX=1;entryY=0.5;entryDx=0;entryDy=0;" edge="1" parent="WIyWlLk6GJQsqaUBKTNV-1" source="ZW8-_Qs09FvXCvjAXGHZ-71" target="ZW8-_Qs09FvXCvjAXGHZ-51">
          <mxGeometry relative="1" as="geometry" />
        </mxCell>
        <mxCell id="8j8fKpsjKrI1UQtAoq8Q-25" style="edgeStyle=orthogonalEdgeStyle;rounded=0;orthogonalLoop=1;jettySize=auto;html=1;exitX=1;exitY=0.5;exitDx=0;exitDy=0;entryX=0;entryY=0.5;entryDx=0;entryDy=0;" edge="1" parent="WIyWlLk6GJQsqaUBKTNV-1" source="ZW8-_Qs09FvXCvjAXGHZ-45" target="ZW8-_Qs09FvXCvjAXGHZ-2">
          <mxGeometry relative="1" as="geometry" />
        </mxCell>
        <mxCell id="8j8fKpsjKrI1UQtAoq8Q-27" style="edgeStyle=orthogonalEdgeStyle;rounded=0;orthogonalLoop=1;jettySize=auto;html=1;exitX=1;exitY=0.5;exitDx=0;exitDy=0;entryX=0;entryY=0.5;entryDx=0;entryDy=0;" edge="1" parent="WIyWlLk6GJQsqaUBKTNV-1" source="ZW8-_Qs09FvXCvjAXGHZ-2" target="ZW8-_Qs09FvXCvjAXGHZ-16">
          <mxGeometry relative="1" as="geometry" />
        </mxCell>
        <mxCell id="8j8fKpsjKrI1UQtAoq8Q-29" style="edgeStyle=orthogonalEdgeStyle;rounded=0;orthogonalLoop=1;jettySize=auto;html=1;exitX=1;exitY=0.5;exitDx=0;exitDy=0;entryX=0;entryY=0.5;entryDx=0;entryDy=0;" edge="1" parent="WIyWlLk6GJQsqaUBKTNV-1" source="ZW8-_Qs09FvXCvjAXGHZ-3" target="ZW8-_Qs09FvXCvjAXGHZ-29">
          <mxGeometry relative="1" as="geometry" />
        </mxCell>
        <mxCell id="8j8fKpsjKrI1UQtAoq8Q-33" value="DIM_COMMUNE" style="swimlane;fontStyle=0;childLayout=stackLayout;horizontal=1;startSize=40;fillColor=#f8cecc;horizontalStack=0;resizeParent=1;resizeParentMax=0;resizeLast=0;collapsible=1;marginBottom=0;whiteSpace=wrap;html=1;strokeColor=#b85450;" vertex="1" parent="WIyWlLk6GJQsqaUBKTNV-1">
          <mxGeometry x="350" y="240" width="260" height="182" as="geometry">
            <mxRectangle x="190" y="310" width="140" height="30" as="alternateBounds" />
          </mxGeometry>
        </mxCell>
        <mxCell id="8j8fKpsjKrI1UQtAoq8Q-36" value="+ ZIPCODE: type" style="text;strokeColor=none;fillColor=none;align=left;verticalAlign=top;spacingLeft=4;spacingRight=4;overflow=hidden;rotatable=0;points=[[0,0.5],[1,0.5]];portConstraint=eastwest;whiteSpace=wrap;html=1;" vertex="1" parent="8j8fKpsjKrI1UQtAoq8Q-33">
          <mxGeometry y="40" width="260" height="26" as="geometry" />
        </mxCell>
        <mxCell id="8j8fKpsjKrI1UQtAoq8Q-41" value="+ LB_COMMUNE: type" style="text;strokeColor=none;fillColor=none;align=left;verticalAlign=top;spacingLeft=4;spacingRight=4;overflow=hidden;rotatable=0;points=[[0,0.5],[1,0.5]];portConstraint=eastwest;whiteSpace=wrap;html=1;" vertex="1" parent="8j8fKpsjKrI1UQtAoq8Q-33">
          <mxGeometry y="66" width="260" height="26" as="geometry" />
        </mxCell>
        <mxCell id="8j8fKpsjKrI1UQtAoq8Q-42" value="+ NB_HABITANTS: type" style="text;strokeColor=none;fillColor=none;align=left;verticalAlign=top;spacingLeft=4;spacingRight=4;overflow=hidden;rotatable=0;points=[[0,0.5],[1,0.5]];portConstraint=eastwest;whiteSpace=wrap;html=1;" vertex="1" parent="8j8fKpsjKrI1UQtAoq8Q-33">
          <mxGeometry y="92" width="260" height="26" as="geometry" />
        </mxCell>
        <mxCell id="8j8fKpsjKrI1UQtAoq8Q-37" value="&lt;div&gt;+ DEPARTEMENT: type&lt;/div&gt;" style="text;strokeColor=none;fillColor=none;align=left;verticalAlign=top;spacingLeft=4;spacingRight=4;overflow=hidden;rotatable=0;points=[[0,0.5],[1,0.5]];portConstraint=eastwest;whiteSpace=wrap;html=1;" vertex="1" parent="8j8fKpsjKrI1UQtAoq8Q-33">
          <mxGeometry y="118" width="260" height="32" as="geometry" />
        </mxCell>
        <mxCell id="8j8fKpsjKrI1UQtAoq8Q-40" value="&lt;div&gt;+ REGION: type&lt;/div&gt;" style="text;strokeColor=none;fillColor=none;align=left;verticalAlign=top;spacingLeft=4;spacingRight=4;overflow=hidden;rotatable=0;points=[[0,0.5],[1,0.5]];portConstraint=eastwest;whiteSpace=wrap;html=1;" vertex="1" parent="8j8fKpsjKrI1UQtAoq8Q-33">
          <mxGeometry y="150" width="260" height="32" as="geometry" />
        </mxCell>
        <mxCell id="8j8fKpsjKrI1UQtAoq8Q-38" style="edgeStyle=orthogonalEdgeStyle;rounded=0;orthogonalLoop=1;jettySize=auto;html=1;exitX=1;exitY=0.5;exitDx=0;exitDy=0;entryX=0;entryY=0.5;entryDx=0;entryDy=0;" edge="1" parent="WIyWlLk6GJQsqaUBKTNV-1" source="ZW8-_Qs09FvXCvjAXGHZ-59" target="8j8fKpsjKrI1UQtAoq8Q-36">
          <mxGeometry relative="1" as="geometry" />
        </mxCell>
      </root>
    </mxGraphModel>
  </diagram>
</mxfile>
